<?xml version="1.0" encoding="iso-8859-1"?>
<!-- Generator: Adobe Illustrator 19.0.0, SVG Export Plug-In . SVG Version: 6.00 Build 0)  -->
<svg version="1.1" id="Layer_1" xmlns="http://www.w3.org/2000/svg" xmlns:xlink="http://www.w3.org/1999/xlink" x="0px" y="0px"
	 viewBox="0 0 258.245 258.245" style="enable-background:new 0 0 258.245 258.245;" xml:space="preserve">
<g>
	<g>
		<path style="fill:#4EFFBB;" d="M251.205,179.562h-4.3v-9.066c5.478-1.315,9.559-6.19,9.559-12.051V145.49
			c0-66.966-53.819-122.702-119.991-124.263c-33.387-0.822-64.912,11.558-88.822,34.757s-37.085,54.23-37.085,87.343v15.119
			c0,6.053,4.355,11.092,10.107,12.188v8.929h-2.301c-3.889,0-7.039,3.122-7.039,6.984v37.112c0,3.834,3.15,6.957,7.039,6.957
			h20.679c3.862,0,7.012-3.122,7.012-6.957V213.25h5.861v14.297c0,8.819,6.628,16.351,15.447,17.474l18.871,2.465
			c0.767,0.11,1.534,0.137,2.301,0.137c4.273,0,8.436-1.534,11.695-4.355c3.834-3.369,6.053-8.189,6.053-13.256v-47.246
			c0-5.067-2.219-9.887-6.053-13.256c-3.834-3.341-8.929-4.875-13.996-4.218l-18.871,2.438c-8.819,1.15-15.447,8.682-15.447,17.502
			v14.078h-5.861v-12.763c0-3.862-3.15-6.984-7.012-6.984h-4.327v-9.23c5.204-1.506,9.038-6.245,9.038-11.887v-13.092
			c0-48.834,39.057-89.726,87.042-91.15c24.458-0.685,47.602,8.217,65.186,25.17s27.279,39.687,27.279,63.953v15.119
			c0,5.861,4.108,10.736,9.586,12.051v9.066h-2.328c-3.889,0-7.012,3.122-7.012,6.984v12.763h-7.285v-14.078
			c0-8.819-6.656-16.351-15.447-17.502l-18.871-2.438c-5.067-0.657-10.161,0.876-14.023,4.218
			c-3.834,3.369-6.026,8.189-6.026,13.256v47.246c0,5.067,2.191,9.887,6.026,13.256c3.259,2.821,7.422,4.355,11.722,4.355
			c0.767,0,1.534-0.027,2.301-0.137l18.871-2.465c8.792-1.123,15.447-8.655,15.447-17.474V213.25h7.285v10.408
			c0,3.834,3.122,6.957,7.012,6.957h20.679c3.889,0,7.039-3.122,7.039-6.957v-37.112
			C258.244,182.684,255.095,179.562,251.205,179.562z"/>
		<g id="XMLID_6_">
			<g>
				<rect x="14.817" y="182.963" style="fill:#302C58;" width="6.628" height="23.144"/>
				<rect x="226.972" y="182.963" style="fill:#302C58;" width="6.656" height="23.144"/>
				<path style="fill:#302C58;" d="M191.613,174.664v42.316c0,1.835-1.397,3.424-3.232,3.643l-18.871,2.465
					c-1.452,0.192-2.438-0.466-2.903-0.876c-0.493-0.411-1.26-1.315-1.26-2.766V172.2c0-1.452,0.767-2.355,1.26-2.766
					c0.411-0.356,1.232-0.904,2.41-0.904c0.164,0,0.329,0,0.493,0.027l18.871,2.438
					C190.216,171.241,191.613,172.802,191.613,174.664z"/>
				<path style="fill:#302C58;" d="M81.674,172.199v47.246c0,1.452-0.794,2.355-1.26,2.766c-0.466,0.411-1.506,1.068-2.931,0.876
					l-18.871-2.465c-1.835-0.219-3.204-1.808-3.204-3.643v-42.316c0-1.862,1.369-3.424,3.204-3.67l18.871-2.438
					c1.452-0.192,2.465,0.466,2.931,0.876C80.879,169.844,81.674,170.748,81.674,172.199z"/>
				<path style="fill:#222051;" d="M91.35,24.22v-0.164c0-4.719-4.645-8.137-9.101-6.582C68.634,22.226,55.906,29.385,44.575,38.75
					c-3.131,2.588-3.309,7.34-0.435,10.211c0.033,0.033,0.066,0.066,0.099,0.099c2.523,2.523,6.538,2.698,9.29,0.427
					c10.008-8.258,21.248-14.568,33.261-18.775C89.54,29.752,91.35,27.129,91.35,24.22z"/>
				<path style="fill:#222051;" d="M240.639,168.995h-4.3v-9.066c5.478-1.315,9.559-6.19,9.559-12.051v-12.955
					c0-66.966-53.819-122.702-119.991-124.263c-8.313-0.205-16.507,0.419-24.497,1.819c-3.352,0.589-5.804,3.498-5.804,6.902l0,0
					c0,4.396,3.996,7.617,8.326,6.853c7.061-1.243,14.302-1.805,21.645-1.635c58.612,1.369,106.296,50.861,106.296,110.322v11.421
					h-5.122v-13.585c0-28.074-11.202-54.34-31.552-73.95c-20.323-19.61-47.082-29.963-75.402-29.114
					c-55.49,1.643-100.654,48.78-100.654,105.091v11.558h-5.122v-13.585c0-26.606,9.641-51.664,27.23-71.441
					c2.438-2.742,2.336-6.897-0.257-9.49l-0.099-0.099c-2.813-2.813-7.436-2.695-10.085,0.274C10.893,74.333,0,102.678,0,132.759
					v15.119c0,6.053,4.355,11.092,10.107,12.188v8.929H7.806c-3.889,0-7.039,3.122-7.039,6.984v37.112
					c0,3.834,3.15,6.957,7.039,6.957h20.679c3.862,0,7.012-3.122,7.012-6.957v-10.408h5.861v14.297
					c0,8.819,6.628,16.351,15.447,17.474l18.871,2.465c0.767,0.11,1.534,0.137,2.301,0.137c4.273,0,8.436-1.534,11.695-4.355
					c3.834-3.369,6.053-8.189,6.053-13.256v-47.246c0-5.067-2.219-9.887-6.053-13.256c-3.834-3.341-8.929-4.875-13.996-4.218
					l-18.871,2.438c-8.819,1.15-15.447,8.682-15.447,17.501v14.078h-5.861v-12.763c0-3.856-3.128-6.984-6.984-6.984h-4.355v-9.23
					c5.204-1.506,9.038-6.245,9.038-11.887v-13.092c0-48.834,39.057-89.726,87.042-91.15c24.458-0.685,47.602,8.217,65.186,25.17
					s27.279,39.686,27.279,63.953v15.119c0,5.861,4.108,10.736,9.586,12.051v9.066h-2.328c-3.889,0-7.012,3.122-7.012,6.984v12.763
					h-7.285v-14.078c0-8.819-6.655-16.351-15.447-17.501l-18.871-2.438c-5.067-0.657-10.161,0.876-14.023,4.218
					c-3.834,3.369-6.026,8.189-6.026,13.256v47.246c0,5.067,2.191,9.887,6.026,13.256c3.259,2.821,7.422,4.355,11.722,4.355
					c0.767,0,1.534-0.027,2.301-0.137l18.871-2.465c8.792-1.123,15.447-8.655,15.447-17.474v-14.297h7.285v10.408
					c0,3.834,3.122,6.957,7.012,6.957h20.679c3.889,0,7.039-3.122,7.039-6.957v-37.112
					C247.678,172.117,244.528,168.995,240.639,168.995z M55.408,174.664c0-1.862,1.369-3.424,3.205-3.67l18.871-2.438
					c1.452-0.192,2.465,0.466,2.931,0.876c0.466,0.411,1.26,1.315,1.26,2.766v47.246c0,1.452-0.794,2.355-1.26,2.766
					c-0.466,0.411-1.506,1.068-2.931,0.876l-18.871-2.465c-1.835-0.219-3.205-1.808-3.205-3.643
					C55.408,216.978,55.408,174.664,55.408,174.664z M21.446,206.107h-6.628v-23.144h6.628V206.107z M191.613,216.98
					c0,1.835-1.397,3.424-3.232,3.643l-18.871,2.465c-1.452,0.192-2.438-0.466-2.903-0.876c-0.493-0.411-1.26-1.315-1.26-2.766
					V172.2c0-1.452,0.767-2.355,1.26-2.766c0.411-0.356,1.232-0.904,2.41-0.904c0.164,0,0.329,0,0.493,0.027l18.871,2.438
					c1.835,0.247,3.232,1.808,3.232,3.67V216.98z M233.627,206.107h-6.656v-23.144h6.656V206.107z"/>
			</g>
		</g>
	</g>
</g>
<g>
</g>
<g>
</g>
<g>
</g>
<g>
</g>
<g>
</g>
<g>
</g>
<g>
</g>
<g>
</g>
<g>
</g>
<g>
</g>
<g>
</g>
<g>
</g>
<g>
</g>
<g>
</g>
<g>
</g>
</svg>
